Cold Case S02_E07 										

												

Airdate: Sunday November 14th, 2004								

												

												

											

It's Raining Men
The case of a man who was murdered in 1983 is reopened at the behest of his former partner. 

Upon further investigation it's found that he was an outspoken aids awareness activist and 

was disowned by his wealthy family because of his sexuality.					

												

												

											

Episode number: 2x7
												

												

												

											

Enjoy and please share.										

												

												

						

TTLTTLTTLTTLTTLTTLTTLTTLTTLTTLTTLTTLTTLTTLTTLTTLTTLTTLTTLTTLTTLTTLTTLTTLTTLTTLTTL		

												

												

												

											

Cold_Case_S02_E07_720p.HDTV.x264_TTL.mkv
Format                           : Matroska
File size                        : 912 MiB
Duration                         : 40mn 36s
Overall bit rate                 : 3 139 Kbps
Writing application              : HandBrake 0.9.5
Writing library                  : libmkv 0.6.4.1

Video
ID                               : 1
Format                           : AVC
Format/Info                      : Advanced Video Codec
Format profile                   : Baseline@L3.0
Format settings, CABAC           : No
Format settings, ReFrames        : 1 frame
Muxing mode                      : Container profile=Unknown@3.0
Codec ID                         : V_MPEG4/ISO/AVC
Duration                         : 40mn 36s
Bit rate                         : 3 007 Kbps
Width                            : 1 280 pixels
Height                           : 720 pixels
Display aspect ratio             : 16:9
Frame rate mode                  : Variable
Frame rate                       : 29.970 fps
Color space                      : YUV
Chroma subsampling               : 4:2:0
Bit depth                        : 8 bits
Scan type                        : Progressive
Bits/(Pixel*Frame)               : 0.109
Stream size                      : 856 MiB (94%)
Writing library                  : x264 core 112
Encoding settings                : cabac=0 / ref=1 / deblock=1:0:0 / analyse=0x1:0x131 / 

me=umh / subme=6 / psy=1 / psy_rd=0.00:0.00 / mixed_ref=0 / me_range=16 / chroma_me=1 / 

trellis=0 / 8x8dct=0 / cqm=0 / deadzone=21,11 / fast_pskip=0 / chroma_qp_offset=0 / 

threads=3 / sliced_threads=0 / nr=0 / decimate=1 / interlaced=0 / constrained_intra=0 / 

bframes=0 / weightp=0 / keyint=300 / keyint_min=29 / scenecut=40 / intra_refresh=0 / 

rc_lookahead=40 / rc=2pass / mbtree=1 / bitrate=3007 / ratetol=1.0 / qcomp=0.60 / qpmin=3 / 

qpmax=51 / qpstep=4 / cplxblur=20.0 / qblur=0.5 / ip_ratio=1.40 / aq=1:1.00
Color primaries                  : BT.709-5, BT.1361, IEC 61966-2-4, SMPTE RP177
Transfer characteristics         : BT.709-5, BT.1361
Matrix coefficients              : BT.709-5, BT.1361, IEC 61966-2-4 709, SMPTE RP177

Audio
ID                               : 2
Format                           : AC-3
Format/Info                      : Audio Coding 3
Mode extension                   : CM (complete main)
Codec ID                         : A_AC3
Duration                         : 40mn 36s
Bit rate mode                    : Constant
Bit rate                         : 128 Kbps
Channel(s)                       : 2 channels
Channel positions                : Front: L R
Sampling rate                    : 48.0 KHz
Stream size                      : 37.2 MiB (4%)



				